<svg width="21" height="21" viewBox="0 0 21 21" fill="none" xmlns="http://www.w3.org/2000/svg">
<path fill-rule="evenodd" clip-rule="evenodd" d="M11.8769 0.763746C11.3195 -0.255232 9.85598 -0.255234 9.29857 0.763746L6.86326 5.21565C6.7284 5.4622 6.52566 5.66491 6.2791 5.79973L1.82695 8.23421C0.807683 8.79156 0.807683 10.2554 1.82695 10.8128L6.2791 13.2472C6.52566 13.3821 6.7284 13.5847 6.86326 13.8313L9.29857 18.2832C9.85598 19.3022 11.3195 19.3022 11.8769 18.2832L14.3122 13.8313C14.4471 13.5847 14.6498 13.3821 14.8964 13.2472L19.3485 10.8128C20.3678 10.2554 20.3678 8.79156 19.3485 8.23421L14.8964 5.79973C14.6498 5.66491 14.4471 5.4622 14.3122 5.21565L11.8769 0.763746ZM11.0705 7.6C10.8038 7.33332 10.3713 7.33332 10.1045 7.6L8.66367 9.0406C8.39692 9.3073 8.39692 9.73969 8.66367 10.0064L10.1045 11.447C10.3713 11.7137 10.8038 11.7137 11.0705 11.447L12.5114 10.0064C12.7781 9.73969 12.7781 9.3073 12.5114 9.0406L11.0705 7.6Z" fill="white"/>
<path d="M5.43386 16.8426L3.26064 14.6693C3.0606 14.4693 2.73627 14.4693 2.53623 14.6693L0.363013 16.8426C0.162974 17.0426 0.162974 17.3669 0.363013 17.567L2.53623 19.7402C2.73627 19.9402 3.0606 19.9402 3.26064 19.7402L5.43386 17.567C5.6339 17.3669 5.6339 17.0426 5.43386 16.8426Z" fill="white"/>
</svg>
