<svg width="44" height="42" viewBox="0 0 44 42" fill="none" xmlns="http://www.w3.org/2000/svg">
<g clip-path="url(#clip0_552_3782)">
<path d="M21.6175 26.0481C16.1662 26.0111 10.7438 25.6721 5.54735 23.8485C4.11645 23.3459 2.69134 22.6114 1.50568 21.6723C-0.548955 20.0435 -0.48523 17.8634 1.70264 16.4489C3.35176 15.3832 5.24032 14.6643 7.07674 13.9317C7.81633 13.6375 8.29523 13.3453 8.59454 12.5582C9.83234 9.29283 11.1416 6.05282 12.4373 2.80891C13.4434 0.289768 15.7027 -0.458376 17.9891 0.95998C18.7287 1.41783 19.4895 1.8484 20.1866 2.3647C21.2757 3.16934 22.2914 3.12843 23.369 2.33547C24.0931 1.79969 24.879 1.34574 25.6495 0.8801C27.7563 -0.392134 30.0446 0.35601 30.9502 2.65499C32.2769 6.02554 33.5707 9.40972 34.8548 12.7978C35.0711 13.3667 35.3916 13.6317 35.9883 13.8109C37.3671 14.2298 38.7208 14.748 40.0493 15.313C40.6904 15.5858 41.2968 15.9969 41.8394 16.4431C43.8207 18.0718 43.8689 20.0182 41.9437 21.7093C40.0435 23.3809 37.6819 24.0628 35.3028 24.6415C30.8073 25.7345 26.2288 26.0715 21.6175 26.0501V26.0481Z" fill="#796BF5"/>
<path d="M6.78605 31.3883C10.3759 26.1883 17.5844 27.3202 19.388 33.3112C20.9155 32.6644 22.4739 32.6157 24.0013 33.3171C25.747 27.328 32.9942 26.0909 36.6149 31.3707C36.8177 30.492 36.9992 29.7283 37.1672 28.9626C37.2888 28.4152 37.4993 27.9008 38.1597 28.0391C38.8279 28.1814 38.8066 28.7581 38.6985 29.2958C38.2235 31.6747 37.7967 34.0633 37.2444 36.4246C36.4662 39.7484 33.6276 41.7824 30.1691 41.6129C27.0717 41.4609 24.5092 39.0197 23.9878 35.7875C23.9318 35.4349 23.6248 34.9147 23.3428 34.8465C22.5009 34.6419 21.6049 34.4977 20.7494 34.564C19.95 34.6263 19.4923 35.1348 19.3301 36.0895C18.7354 39.6003 15.9064 41.7376 12.2567 41.5915C9.01254 41.4609 6.50991 38.9924 6.02521 35.6355C5.73942 33.6541 5.22962 31.7039 4.82024 29.74C4.78162 29.5491 4.66383 29.327 4.72369 29.175C4.86466 28.8068 5.08866 28.4717 5.27983 28.1229C5.59845 28.3684 6.08315 28.5515 6.20094 28.873C6.47708 29.6153 6.57556 30.4239 6.78411 31.3863L6.78605 31.3883Z" fill="#796BF5"/>
</g>
<defs>
<clipPath id="clip0_552_3782">
<rect width="43.3462" height="41.3759" fill="white" transform="translate(0.00976562 0.248779)"/>
</clipPath>
</defs>
</svg>
