<svg width="14" height="13" viewBox="0 0 14 13" fill="none" xmlns="http://www.w3.org/2000/svg">
<path d="M10.4968 6.99785C12.0427 6.99785 13.2959 8.25109 13.2959 9.79699C13.2959 11.3429 12.0427 12.5961 10.4968 12.5961C8.95088 12.5961 7.69763 11.3429 7.69763 9.79699H6.29806C6.29806 11.3429 5.04485 12.5961 3.49892 12.5961C1.953 12.5961 0.699785 11.3429 0.699785 9.79699C0.699785 8.25109 1.953 6.99785 3.49892 6.99785C4.53497 6.99785 5.43955 7.56069 5.92354 8.39735H8.07216C8.55613 7.56069 9.46074 6.99785 10.4968 6.99785ZM3.49892 8.39742C2.72596 8.39742 2.09935 9.02401 2.09935 9.79699C2.09935 10.57 2.72596 11.1966 3.49892 11.1966C4.27189 11.1966 4.89849 10.57 4.89849 9.79699C4.89849 9.02401 4.27189 8.39742 3.49892 8.39742ZM10.4968 8.39742C9.72379 8.39742 9.0972 9.02401 9.0972 9.79699C9.0972 10.57 9.72379 11.1966 10.4968 11.1966C11.2698 11.1966 11.8963 10.57 11.8963 9.79699C11.8963 9.02401 11.2698 8.39742 10.4968 8.39742ZM9.79699 0C11.3429 0 12.5961 1.25322 12.5961 2.79914V4.89849H13.9957V6.29807H0V4.89849H1.39957V2.79914C1.39957 1.25322 2.65279 0 4.19871 0H9.79699ZM9.79699 1.39957H4.19871C3.46088 1.39957 2.79914 2.06437 2.79914 2.79914V4.89849H11.1966V2.79914C11.1966 2.06131 10.5318 1.39957 9.79699 1.39957Z" fill="white"/>
</svg>
