<svg width="16" height="16" viewBox="0 0 16 16" fill="none" xmlns="http://www.w3.org/2000/svg">
<path d="M7.99983 0C12.4159 0 16 3.58408 16 8.00017C16 12.4163 12.4159 16.0003 7.99983 16.0003C3.58374 16.0003 -0.000335693 12.4163 -0.000335693 8.00017C-0.000335693 3.58408 3.58374 0 7.99983 0ZM14.4 8.00017C14.4 7.51216 14.336 7.03215 14.232 6.57614L10.4079 10.4002V11.2002C10.4079 12.0803 9.68787 12.8003 8.80785 12.8003V14.3443C11.9519 13.9443 14.4 11.2562 14.4 8.00017ZM3.28773 12.3203C3.49574 11.6722 4.08775 11.2002 4.80777 11.2002H5.60778V8.80018C5.60778 8.36018 5.96779 8.00017 6.4078 8.00017H11.2079V6.40013H9.60787C9.16786 6.40013 8.80785 6.04013 8.80785 5.60012V4.00008H7.20782C6.3278 4.00008 5.60778 3.28007 5.60778 2.40005V2.07204C3.26373 3.01606 1.5997 5.32011 1.5997 8.00017C1.5997 9.6642 2.24771 11.1842 3.28773 12.3203Z" fill="white"/>
</svg>
