<svg width="35" height="34" viewBox="0 0 35 34" fill="none" xmlns="http://www.w3.org/2000/svg">
<g clip-path="url(#clip0_552_3753)">
<path d="M5.64068 12.0697C5.66312 5.32557 11.4107 0.0881228 18.3478 0.508507C24.8782 0.905751 29.9486 6.59958 29.3995 12.9465C29.1909 15.3518 28.3474 17.5411 26.7223 19.3795C25.1382 21.1716 24.3383 23.19 24.4795 25.5593C24.5072 26.0272 24.4756 26.5016 24.428 26.9696C24.3356 27.8836 23.8538 28.5868 23.0499 29.0406C22.6314 29.2772 22.3859 29.5356 22.2394 30.0151C21.6057 32.0849 19.6309 33.4424 17.4171 33.4103C15.3195 33.3795 13.3961 31.9332 12.8034 29.9071C12.6939 29.5317 12.5275 29.3042 12.1579 29.1126C11.2735 28.6537 10.723 27.9145 10.653 26.9181C10.5923 26.0439 10.6042 25.1646 10.5685 24.2878C10.5025 22.6706 9.92698 21.2243 8.85243 20.0069C7.12841 18.0554 5.99842 15.8647 5.72516 13.2846C5.68292 12.8809 5.66576 12.4747 5.63672 12.0697H5.64068ZM22.5443 23.6605C22.836 21.5097 23.7997 19.7472 25.1858 18.1595C26.5666 16.5769 27.2939 14.7077 27.4207 12.6431C27.7942 6.58929 22.3912 1.70924 16.2119 2.53843C12.4008 3.05009 9.71048 5.10445 8.33496 8.57037C6.95152 12.0581 7.57063 15.3377 9.98506 18.2701C10.2596 18.6043 10.5421 18.9321 10.8009 19.2792C11.7738 20.5828 12.3044 22.0638 12.5605 23.6605H22.5443ZM12.616 25.6853C12.616 26.0157 12.6001 26.3113 12.6186 26.6032C12.6556 27.1855 12.9856 27.5301 13.5823 27.5339C16.2224 27.5481 18.8626 27.5468 21.5014 27.5339C22.0981 27.5314 22.4308 27.1894 22.469 26.607C22.4888 26.3139 22.473 26.0195 22.473 25.684H12.616V25.6853ZM20.2738 29.4829H14.7888C15.3129 30.7633 16.4204 31.5102 17.6244 31.4755C18.7939 31.4408 19.8659 30.663 20.2751 29.4829H20.2738Z" fill="#4B5563"/>
<path d="M4.38421 8.03794C4.22316 8.24363 4.07267 8.60359 3.80601 8.72958C3.53804 8.85685 3.04433 8.88128 2.84104 8.72058C2.2008 8.21535 1.61732 7.63041 1.08005 7.01976C0.777751 6.67523 0.851676 6.17771 1.22526 5.9373C1.52492 5.74447 2.12423 5.57606 2.32488 5.72776C3.02189 6.25613 3.608 6.92463 4.22316 7.55199C4.30368 7.63427 4.30632 7.78854 4.38421 8.03665V8.03794Z" fill="#4B5563"/>
<path d="M34.1599 6.35887C34.1757 7.19321 32.3527 8.95574 31.7058 8.85033C31.4075 8.80147 31.0313 8.57264 30.9072 8.32324C30.7831 8.07384 30.8095 7.60331 30.9811 7.39377C31.4537 6.81397 31.9976 6.27146 32.5956 5.81765C32.8266 5.64152 33.3243 5.63638 33.62 5.7508C33.8893 5.85493 34.049 6.22518 34.1599 6.36016V6.35887Z" fill="#4B5563"/>
<path d="M4.41548 18.0617C4.2848 18.3471 4.24651 18.5554 4.12111 18.6852C3.59836 19.2277 3.07824 19.7792 2.49873 20.2613C2.11063 20.584 1.6288 20.5416 1.24861 20.1829C0.848631 19.8037 0.785267 19.3344 1.15489 18.9231C1.64332 18.3793 2.15551 17.8419 2.73766 17.4022C2.97528 17.2235 3.47295 17.1914 3.75941 17.3084C4.04322 17.4241 4.21087 17.8123 4.41416 18.0617H4.41548Z" fill="#4B5563"/>
<path d="M33.3343 20.4849C33.032 20.4322 32.8591 20.4541 32.7825 20.3808C32.1304 19.7612 31.4413 19.1634 30.8909 18.464C30.7443 18.2776 30.9384 17.6837 31.1575 17.4176C31.4559 17.0537 31.9773 17.0627 32.3416 17.3713C32.9159 17.8598 33.4795 18.3779 33.9442 18.9628C34.1211 19.1852 34.1185 19.6673 33.9983 19.9514C33.8901 20.2073 33.5086 20.3538 33.337 20.4837L33.3343 20.4849Z" fill="#4B5563"/>
<path d="M2.62095 12.0683C2.94965 12.0683 3.27835 12.0542 3.60573 12.0709C4.20372 12.1018 4.61163 12.508 4.60635 13.0415C4.60107 13.5493 4.209 13.9671 3.65061 13.989C2.97341 14.016 2.29225 14.0147 1.61505 13.989C1.05533 13.9684 0.661951 13.5622 0.64875 13.0544C0.635549 12.5209 1.04213 12.1056 1.63617 12.0722C1.96355 12.0542 2.29225 12.0683 2.62095 12.0683Z" fill="#4B5563"/>
<path d="M32.4236 13.9953C32.0949 13.9953 31.7649 14.0133 31.4388 13.9915C30.8818 13.9529 30.4897 13.548 30.4844 13.0402C30.4791 12.5311 30.8686 12.0991 31.4204 12.076C32.12 12.0477 32.8223 12.0464 33.5219 12.0773C34.0711 12.1017 34.4711 12.5465 34.4381 13.0543C34.4037 13.5955 34.0869 13.9246 33.5378 13.9838C33.1708 14.0236 32.7946 13.9915 32.4223 13.9915C32.4223 13.9915 32.4223 13.9928 32.4223 13.9941L32.4236 13.9953Z" fill="#4B5563"/>
<path d="M17.8743 4.35749C21.8702 4.44105 25.371 7.84526 25.4621 11.7354C25.4806 12.5428 25.1519 12.994 24.5222 13.021C23.8833 13.0493 23.5176 12.6302 23.478 11.8254C23.3288 8.82487 20.8775 6.43498 17.8004 6.28971C16.9674 6.24986 16.5397 5.90275 16.5634 5.28053C16.5859 4.66474 17.0492 4.33949 17.8743 4.3562V4.35749Z" fill="#4B5563"/>
</g>
<defs>
<clipPath id="clip0_552_3753">
<rect width="33.7914" height="32.9249" fill="white" transform="translate(0.648438 0.485352)"/>
</clipPath>
</defs>
</svg>
