<svg width="33" height="28" viewBox="0 0 33 28" fill="none" xmlns="http://www.w3.org/2000/svg">
<g clip-path="url(#clip0_552_3751)">
<path d="M16.5076 4.49842C17.3925 3.19967 18.3622 2.12846 19.6286 1.36403C24.3859 -1.50319 30.4058 0.695484 32.3041 6.00937C33.6463 9.76884 32.8191 13.2151 30.6395 16.4173C28.519 19.5337 25.6575 21.9024 22.6135 24.0589C20.9091 25.2669 19.1226 26.3611 17.3758 27.5103C16.8454 27.8593 16.2969 27.9245 15.7498 27.5909C11.9172 25.2477 8.18097 22.7704 4.99315 19.5747C3.12567 17.7032 1.4958 15.6477 0.667379 13.095C-0.569474 9.28308 -0.0724211 5.73197 2.72366 2.75738C6.46248 -1.22068 12.7058 -0.669738 16.0002 3.81836C16.1479 4.02033 16.2995 4.21975 16.5076 4.49842ZM8.6549 2.68963C7.67621 2.67301 6.56779 3.00664 5.5647 3.68159C3.14365 5.31269 2.0545 8.61965 2.92146 11.7029C3.50071 13.7635 4.68362 15.4713 6.11313 17.0219C9.03636 20.1908 12.5684 22.5889 16.2122 24.8348C16.3766 24.9358 16.7465 24.8642 16.9365 24.7428C18.3738 23.8199 19.8161 22.9021 21.2045 21.9114C23.8375 20.031 26.333 17.9883 28.2455 15.3435C29.9216 13.0259 30.8283 10.5102 30.1117 7.60979C29.1291 3.63429 25.0217 1.5366 21.5076 3.25847C19.6183 4.18396 18.5215 5.81379 17.7714 7.70567C17.5376 8.29368 17.1472 8.70018 16.4999 8.70274C15.8513 8.70529 15.4801 8.28985 15.2155 7.71717C14.8764 6.98598 14.5361 6.24329 14.084 5.58114C12.8445 3.77107 11.1697 2.67557 8.6549 2.69091V2.68963Z" fill="#4B5563"/>
</g>
<defs>
<clipPath id="clip0_552_3751">
<rect width="32.9249" height="27.7263" fill="white" transform="translate(0.0273438 0.0845947)"/>
</clipPath>
</defs>
</svg>
