<svg width="38" height="38" viewBox="0 0 38 38" fill="none" xmlns="http://www.w3.org/2000/svg">
<g clip-path="url(#clip0_552_3741)">
<path d="M19.1616 0.752441C29.2052 0.752441 37.3698 8.90276 37.3712 18.9336C37.3726 29.0056 29.2095 37.1488 19.119 37.1432C9.11231 37.1375 0.976206 28.9488 0.98047 18.8895C0.984735 8.91129 9.16206 0.752441 19.1616 0.752441ZM19.1801 3.02953C10.4257 3.02811 3.26751 10.1735 3.25756 18.9251C3.24761 27.6795 10.3873 34.8476 19.136 34.8647C27.9217 34.8831 35.0998 27.7164 35.0941 18.9336C35.0884 10.1792 27.9359 3.03095 19.1815 3.02953H19.1801Z" fill="#4B5563"/>
<path d="M19.1758 25.3128C19.7955 24.6632 20.3073 24.1046 20.8417 23.5716C21.5709 22.8438 22.1053 22.8467 22.8459 23.5886C23.3789 24.1231 23.8835 24.6874 24.4748 25.3156C25.1073 24.6533 25.6489 24.0634 26.216 23.4991C26.7675 22.9518 27.4384 22.9106 27.916 23.3598C28.4192 23.8331 28.3993 24.5268 27.8307 25.1124C27.039 25.9268 26.2359 26.7314 25.4215 27.5231C24.7705 28.1556 24.1706 28.1442 23.5154 27.4819C22.9695 26.9289 22.4564 26.3433 21.8381 25.6738C21.1914 26.3646 20.674 26.9474 20.1239 27.4975C19.4686 28.1542 18.8816 28.1528 18.2277 27.4961C17.6791 26.9446 17.1617 26.3632 16.5135 25.6696C15.9109 26.3263 15.4162 26.8962 14.8874 27.4335C14.1597 28.1741 13.5769 28.1641 12.8278 27.4222C12.0702 26.6731 11.3155 25.9226 10.5692 25.1621C9.96087 24.541 9.91823 23.8459 10.4385 23.3584C10.9303 22.8978 11.6026 22.9604 12.191 23.5488C12.7397 24.0975 13.2685 24.6646 13.8868 25.3085C14.488 24.6703 15.0068 24.0875 15.5598 23.5389C16.2349 22.868 16.795 22.8651 17.4616 23.5247C18.016 24.0719 18.5405 24.649 19.1772 25.3142L19.1758 25.3128Z" fill="#4B5563"/>
<path d="M13.6185 14.3952C12.9134 13.9574 12.3122 13.595 11.7223 13.2154C11.0358 12.7762 10.8282 12.1139 11.1807 11.5396C11.5446 10.9469 12.1914 10.8346 12.9092 11.2681C14.0207 11.939 15.128 12.6184 16.2253 13.3121C17.1933 13.9247 17.2061 14.8486 16.2509 15.4556C15.1351 16.1648 14.0079 16.8556 12.8751 17.5379C12.1899 17.9501 11.5702 17.8407 11.1992 17.2792C10.8282 16.7164 11.0244 16.0327 11.6925 15.592C11.9881 15.3973 12.2951 15.2196 12.595 15.0334C12.895 14.8472 13.1935 14.6596 13.617 14.3952H13.6185Z" fill="#4B5563"/>
<path d="M24.7334 14.3938C25.4242 14.823 26.0226 15.1841 26.6111 15.5607C27.2976 15.9999 27.5165 16.6609 27.1796 17.2337C26.82 17.8463 26.1434 17.9558 25.3958 17.5009C24.2871 16.8244 23.1812 16.1449 22.0868 15.447C21.1629 14.8586 21.1572 13.9375 22.0782 13.349C23.1926 12.6383 24.3198 11.9475 25.4512 11.2638C26.1619 10.8332 26.8186 10.9554 27.1754 11.551C27.5222 12.1309 27.3118 12.7819 26.6182 13.2254C26.0283 13.602 25.4299 13.9631 24.7348 14.3923L24.7334 14.3938Z" fill="#4B5563"/>
</g>
<defs>
<clipPath id="clip0_552_3741">
<rect width="36.3907" height="36.3907" fill="white" transform="translate(0.980469 0.752441)"/>
</clipPath>
</defs>
</svg>
