<svg width="40" height="43" viewBox="0 0 40 43" fill="none" xmlns="http://www.w3.org/2000/svg">
<g clip-path="url(#clip0_552_3746)">
<path d="M7.58257 29.9333C8.41415 29.3446 8.66424 28.5645 8.83029 27.7477C9.16715 26.0913 9.1856 24.4152 9.31953 22.7459C9.48147 20.7239 10.0999 18.7947 11.0271 16.9159C12.3158 14.3052 13.5847 11.6849 14.7388 9.03225C15.4727 7.3448 18.1335 6.50361 20.0659 7.83048C20.5879 7.45631 21.1865 7.218 21.8855 7.17667C22.6679 7.13025 23.3915 7.26781 24.0516 7.63009C24.5989 7.93068 24.998 8.3224 25.2364 8.83186C26.7117 11.9837 28.1992 15.1322 29.6663 18.2869C30.1965 19.427 30.4952 20.6186 30.6236 21.8334C30.7411 22.9485 30.7931 24.0682 30.9079 25.1834C31.0281 26.3495 31.1224 27.5218 31.516 28.6551C31.7094 29.2115 31.9861 29.5489 32.4945 29.9202C32.925 29.6129 33.4074 29.3927 33.978 29.301C34.7556 29.1759 35.4894 29.3038 36.0484 29.7283C37.0282 30.4727 37.9849 31.2488 38.8492 32.0843C39.7963 33.0002 39.7382 34.1828 38.7734 35.0885C38.0511 35.7661 37.2647 36.3978 36.4946 37.0391C34.5191 38.6841 32.543 40.3291 30.5553 41.9634C29.5044 42.8278 27.7811 42.817 26.7247 41.9555C25.8965 41.2807 25.0697 40.6048 24.2573 39.9176C23.3095 39.1155 23.1797 38.0977 23.8794 37.1376C23.9259 37.0737 23.9757 37.0108 24.0407 36.9254C22.4158 36.138 20.9501 35.2153 20.0467 33.7407C19.1646 35.2306 17.6887 36.1589 16.0159 36.935C16.074 37.0052 16.1246 37.0658 16.1738 37.1269C16.8783 38.0003 16.7778 39.0855 15.8936 39.8401C15.0374 40.5709 14.1683 41.2926 13.2847 42.0008C12.2618 42.821 10.542 42.8097 9.53067 41.9753C6.86032 39.7716 4.19406 37.565 1.53806 35.3494C0.202195 34.2354 0.210394 32.8791 1.53669 31.756C2.24528 31.156 2.96821 30.5678 3.68705 29.9757C4.78854 29.0683 6.24671 29.0151 7.45001 29.8376C7.49306 29.867 7.53337 29.8976 7.58325 29.9338L7.58257 29.9333ZM31.1586 31.0858C30.5122 30.5259 30.0708 29.944 29.8057 29.2721C29.2741 27.9243 29.132 26.5227 28.9912 25.1234C28.8983 24.195 28.8668 23.2627 28.7794 22.3343C28.6721 21.1931 28.4172 20.0718 27.9211 19.0002C26.8197 16.6204 25.6983 14.2469 24.5839 11.8711C24.2081 11.0701 23.835 10.2685 23.4503 9.47096C23.1913 8.93375 22.5668 8.65355 21.8889 8.76337C21.4598 8.83299 20.9774 9.16358 20.9849 9.83834C21.0109 12.0166 20.9945 14.1954 20.9945 16.3742C20.9945 16.4749 20.9945 16.5757 20.9945 16.6861C21.1797 16.6861 21.3266 16.6923 21.4714 16.685C22.3474 16.6397 23.0915 16.8769 23.7181 17.3852C24.6098 18.1086 24.9289 19.0245 24.9453 20.0151C24.974 21.7315 24.9542 23.4484 24.9508 25.1647C24.9508 25.2558 24.9351 25.3526 24.8955 25.4364C24.7267 25.7981 24.2928 25.9838 23.8206 25.9079C23.4018 25.8406 23.1079 25.5394 23.1073 25.1556C23.1032 23.5333 23.1073 21.9109 23.1004 20.2891C23.0991 20.0168 23.0779 19.7429 23.0348 19.4729C22.9166 18.7358 22.2757 18.2637 21.4407 18.2677C21.1318 18.2688 20.9849 18.33 20.9856 18.6334C20.9979 22.6983 20.9835 26.7633 21.0061 30.8282C21.0088 31.2862 21.1195 31.7662 21.3102 32.1964C22.0304 33.8261 23.4475 34.922 25.313 35.6585C25.5241 35.7417 25.6 35.65 25.71 35.5589C27.2474 34.2852 28.7835 33.0099 30.323 31.7379C30.5874 31.5194 30.8662 31.3116 31.1566 31.0847L31.1586 31.0858ZM19.0607 16.707C19.0696 16.6442 19.0771 16.6165 19.0771 16.5887C19.0778 14.2684 19.0799 11.9481 19.0771 9.62776C19.0771 9.22358 18.6965 8.85167 18.2162 8.76167C17.5267 8.63261 16.9049 8.93206 16.6179 9.53719C15.3893 12.1281 14.184 14.7264 12.9274 17.3076C12.078 19.0517 11.3968 20.8241 11.2355 22.7119C11.1146 24.1288 11.0216 25.5479 10.87 26.9625C10.7695 27.8948 10.5686 28.8232 10.0691 29.6723C9.7753 30.171 9.37351 30.6261 9.00521 31.1203C10.7886 32.5949 12.6076 34.1018 14.4348 35.6019C14.499 35.6545 14.665 35.6828 14.7463 35.6528C15.9428 35.2079 17.0033 34.6073 17.7966 33.7265C18.6453 32.7846 19.1072 31.747 19.0915 30.5412C19.0532 27.5988 19.0792 24.6558 19.0792 21.7128C19.0792 20.6656 19.0764 19.6189 19.0819 18.5717C19.0826 18.4296 19.0764 18.3079 18.8673 18.2858C18.3897 18.2354 17.9374 18.2632 17.5766 18.5762C17.1775 18.9226 17.0347 19.3517 17.0327 19.8102C17.0231 21.5549 17.0293 23.3001 17.0272 25.0452C17.0272 25.1471 17.0245 25.2541 16.9889 25.3498C16.8373 25.7568 16.3794 25.9821 15.8758 25.9096C15.4529 25.8491 15.1181 25.5043 15.1174 25.1132C15.1146 23.5191 15.1071 21.9251 15.1228 20.331C15.1269 19.9104 15.1666 19.4836 15.2629 19.0715C15.4536 18.2609 15.9189 17.5731 16.7689 17.1044C17.4591 16.724 18.2312 16.6255 19.0614 16.7059L19.0607 16.707ZM37.6917 33.5567C37.5462 33.3438 37.4621 33.1321 37.2934 32.9878C36.541 32.3453 35.7682 31.7187 34.9947 31.0931C34.6148 30.7858 34.1399 30.7965 33.7552 31.1067C33.5598 31.2647 33.3725 31.4294 33.1799 31.5902C30.6878 33.671 28.1945 35.7508 25.7031 37.8322C25.3123 38.1588 25.2679 38.52 25.6293 38.8274C26.4151 39.4953 27.216 40.152 28.0277 40.799C28.4001 41.0962 28.8805 41.0843 29.244 40.7831C31.9342 38.559 34.6209 36.3333 37.3002 34.1001C37.4635 33.9637 37.5469 33.7616 37.6917 33.5561V33.5567ZM2.38672 33.5437C2.535 33.752 2.62724 33.9473 2.78645 34.0933C3.16705 34.4426 3.57704 34.7703 3.97882 35.1043C6.24534 36.9859 8.51187 38.867 10.7804 40.7463C11.2014 41.0945 11.6332 41.1171 12.0329 40.7911C12.8351 40.1361 13.6278 39.4733 14.4115 38.803C14.7894 38.4798 14.7764 38.199 14.4136 37.8696C14.3063 37.7722 14.1922 37.6799 14.0794 37.5865C11.5601 35.5017 9.04074 33.4163 6.5214 31.332C6.40045 31.2324 6.28634 31.1254 6.15515 31.036C5.83673 30.8186 5.40488 30.8248 5.10764 31.0648C4.32594 31.6966 3.54492 32.3294 2.7844 32.9782C2.61494 33.1231 2.52953 33.3359 2.3874 33.5437H2.38672Z" fill="#4B5563"/>
<path d="M27.157 7.07379C26.6021 7.05228 26.2926 6.88585 26.1238 6.56659C25.9639 6.26374 26.0179 5.97505 26.3049 5.73616C27.349 4.86725 28.3917 3.9972 29.4467 3.1379C29.8212 2.83336 30.4389 2.85713 30.797 3.15828C31.1366 3.44415 31.1694 3.9655 30.8195 4.26155C29.7918 5.13047 28.7539 5.9909 27.7009 6.83944C27.5355 6.97246 27.2752 7.02454 27.1563 7.07379H27.157Z" fill="#4B5563"/>
<path d="M8.95312 3.77573C9.02487 3.40099 9.24695 3.11569 9.62208 2.99116C10.0095 2.86266 10.3566 2.92776 10.6505 3.16834C11.6611 3.99707 12.6703 4.82636 13.6754 5.65961C14.1278 6.03492 14.1421 6.48494 13.7281 6.82742C13.3263 7.1597 12.7359 7.15347 12.3047 6.79968C11.3112 5.98341 10.317 5.1677 9.34193 4.33671C9.16632 4.1867 9.0809 3.96423 8.95312 3.77517V3.77573Z" fill="#4B5563"/>
<path d="M20.9934 2.71147C20.9934 3.30584 20.9968 3.90022 20.992 4.49403C20.9886 4.94349 20.539 5.31483 20.0237 5.30237C19.5017 5.28992 19.0801 4.93669 19.0787 4.50082C19.0753 3.31207 19.0753 2.12389 19.0787 0.935141C19.0801 0.45851 19.4655 0.152832 20.0483 0.152832C20.6039 0.152832 20.9865 0.463605 20.9906 0.928914C20.9961 1.52329 20.992 2.11766 20.992 2.71147H20.9934Z" fill="#4B5563"/>
</g>
<defs>
<clipPath id="clip0_552_3746">
<rect width="38.9901" height="42.4558" fill="white" transform="translate(0.537109 0.152954)"/>
</clipPath>
</defs>
</svg>
